<svg width="184" height="169" viewBox="0 0 184 169" fill="none" xmlns="http://www.w3.org/2000/svg">
<g filter="url(#filter0_d_0_89)">
<path d="M95.4595 129C99.8777 129 103.459 125.418 103.459 121V69.2162H116C120.418 69.2162 124 65.6345 124 61.2162V59C124 54.5817 120.418 51 116 51H68C63.5817 51 60 54.5817 60 59V61.2162C60 65.6345 63.5817 69.2162 68 69.2162H80.5405V121C80.5405 125.418 84.1223 129 88.5405 129H95.4595Z" fill="white"/>
</g>
<g filter="url(#filter1_d_0_89)">
<rect x="24" y="8" width="32" height="32" rx="8" fill="white"/>
<rect x="76" y="8" width="32" height="32" rx="8" fill="white"/>
<rect x="128" y="8" width="32" height="32" rx="8" fill="white"/>
</g>
<defs>
<filter id="filter0_d_0_89" x="36" y="43" width="112" height="126" filterUnits="userSpaceOnUse" color-interpolation-filters="sRGB">
<feFlood flood-opacity="0" result="BackgroundImageFix"/>
<feColorMatrix in="SourceAlpha" type="matrix" values="0 0 0 0 0 0 0 0 0 0 0 0 0 0 0 0 0 0 127 0" result="hardAlpha"/>
<feOffset dy="16"/>
<feGaussianBlur stdDeviation="12"/>
<feColorMatrix type="matrix" values="0 0 0 0 0 0 0 0 0 0 0 0 0 0 0 0 0 0 0.08 0"/>
<feBlend mode="normal" in2="BackgroundImageFix" result="effect1_dropShadow_0_89"/>
<feBlend mode="normal" in="SourceGraphic" in2="effect1_dropShadow_0_89" result="shape"/>
</filter>
<filter id="filter1_d_0_89" x="0" y="0" width="184" height="80" filterUnits="userSpaceOnUse" color-interpolation-filters="sRGB">
<feFlood flood-opacity="0" result="BackgroundImageFix"/>
<feColorMatrix in="SourceAlpha" type="matrix" values="0 0 0 0 0 0 0 0 0 0 0 0 0 0 0 0 0 0 127 0" result="hardAlpha"/>
<feOffset dy="16"/>
<feGaussianBlur stdDeviation="12"/>
<feColorMatrix type="matrix" values="0 0 0 0 0 0 0 0 0 0 0 0 0 0 0 0 0 0 0.08 0"/>
<feBlend mode="normal" in2="BackgroundImageFix" result="effect1_dropShadow_0_89"/>
<feBlend mode="normal" in="SourceGraphic" in2="effect1_dropShadow_0_89" result="shape"/>
</filter>
</defs>
</svg>
