<svg width="220" height="243" viewBox="0 0 220 243" fill="none" xmlns="http://www.w3.org/2000/svg">
<g clip-path="url(#clip0_0_121)">
<path d="M45.5523 9.70751C45.1585 9.54244 44.8016 9.27126 44.5317 8.90133C43.7396 7.82102 43.9742 6.30152 45.0568 5.51008C53.1644 -0.417617 63.5317 -1.64384 72.7884 2.22641C81.9019 6.0377 88.2825 14.1393 89.8562 23.8989C90.0686 25.2239 89.1674 26.4692 87.8429 26.6815C86.5155 26.8937 85.2707 25.9947 85.0568 24.6712C83.7559 16.5799 78.4668 9.86373 70.9122 6.70534C63.2397 3.49684 54.6467 4.51525 47.927 9.42748C47.2131 9.94921 46.3104 10.0244 45.5523 9.70751Z" fill="#CADBF1"/>
<path d="M49.7706 16.6308C49.3768 16.4657 49.0213 16.1945 48.7499 15.8246C47.9579 14.7428 48.1939 13.2233 49.275 12.4318C55.1674 8.12682 62.6968 7.23517 69.4225 10.0472C76.0449 12.8165 80.6792 18.7029 81.8208 25.792C82.0346 27.117 81.1349 28.3624 79.8104 28.5761C78.483 28.7853 77.2367 27.8863 77.0258 26.5643C76.1511 21.1436 72.6084 16.6426 67.5464 14.5261C62.4063 12.3758 56.6482 13.0582 52.1452 16.3507C51.4314 16.8725 50.5302 16.9476 49.7706 16.6308Z" fill="#CADBF1"/>
<path d="M53.0508 24.6237C52.657 24.4587 52.3015 24.189 52.0316 23.819C51.2396 22.7358 51.4741 21.2177 52.5567 20.4263C56.4254 17.598 61.3723 17.0129 65.7897 18.8611C70.1408 20.6798 73.1835 24.5441 73.9343 29.2029C74.1467 30.5264 73.2455 31.7717 71.9195 31.984C70.5965 32.1947 69.3473 31.2972 69.1364 29.9722C68.6555 26.9848 66.7027 24.5058 63.9136 23.3386C61.0803 22.1536 57.9077 22.5294 55.4269 24.3452C54.713 24.8654 53.8104 24.9421 53.0508 24.6237Z" fill="#CADBF1"/>
<path d="M65.6342 32.3912C64.5413 34.9998 61.5398 36.229 58.9292 35.1369C56.3185 34.0463 55.087 31.0456 56.1799 28.4369C57.2728 25.8283 60.2743 24.5991 62.8849 25.6897C65.4955 26.7818 66.7271 29.7825 65.6342 32.3912Z" fill="#CADBF1"/>
<path d="M65.1493 103.046C65.1493 103.046 56.9104 114.972 37.3971 111.112C33.1154 110.266 29.6906 108.302 26.9531 105.747V121.386C43.7599 126.686 62.4886 114.736 68.2231 106.14L65.1493 103.046Z" fill="#E2B558"/>
<path d="M69.0171 110.017L63.5156 106.537L68.2162 93.678L74.6661 94.5593L69.0171 110.017Z" fill="#423C62"/>
<path d="M74.5552 94.6148L75.6614 95.9177L70.5198 109.741L68.9062 110.072L74.5552 94.6148Z" fill="#342A59"/>
<path d="M12.1875 230.727V235.561H26.599L16.2627 230.727L13.8822 228.576L12.1875 230.727Z" fill="#1C3C43"/>
<path d="M45.4776 137.707C46.2166 186.852 35.1974 227.968 35.1974 227.968H31.1221C31.1221 227.968 17.7652 174.41 19.3493 138.03L45.4776 137.707Z" fill="#1C3C43"/>
<path d="M31.0082 140.565C24.3784 211.382 16.2132 230.509 16.2132 230.509H12.138C12.138 230.509 -1.22042 176.952 0.365124 140.573C0.365124 140.573 31.8076 132.023 31.0082 140.565Z" fill="#085868"/>
<path d="M0.388886 142.614C0.388886 142.614 11.116 146.338 27.6751 146.338C44.2355 146.338 45.4465 142.341 45.4465 142.341C45.4465 142.341 51.6043 77.4487 26.8683 75.0243C5.26059 72.9064 -1.83235 112.142 0.388886 142.614Z" fill="#FFD06F"/>
<path d="M67.5549 108.9C67.5549 108.9 67.2304 103.344 68.1596 102.903C69.0903 102.462 69.7024 103.557 70.285 102.903C70.8676 102.249 72.4974 98.9988 74.1832 100.745C75.8676 102.492 75.0475 108.45 70.6286 111.993H67.9561L67.5549 108.9Z" fill="#F59DB0"/>
<path d="M18.573 85.2469C18.573 85.2469 20.2131 112.557 39.8223 116.434C59.3355 120.294 67.576 108.368 67.576 108.368L70.6497 111.462C61.8429 124.66 22.4122 145.797 6.32812 100.213" fill="#FFD06F"/>
<path d="M38.2014 128.517C27.8858 128.517 14.2058 123.541 6.09375 100.55L6.24419 100.236L6.55834 100.386C16.4684 128.471 34.7398 129.343 44.7486 127.366C44.8843 127.349 45.0112 127.428 45.0377 127.562C45.0657 127.697 44.9772 127.825 44.8445 127.853C42.8976 128.237 40.6439 128.517 38.2014 128.517Z" fill="#E2B558"/>
<path d="M45.1134 117.628H45.0986C43.3552 117.521 41.5499 117.284 39.7284 116.923C20.162 113.054 18.3007 85.7837 18.2815 85.5081C18.2756 85.3725 18.3788 85.2561 18.5145 85.2472C18.6443 85.2399 18.7667 85.343 18.7756 85.4786C18.7918 85.7513 20.6325 112.644 39.8258 116.439C41.6237 116.794 43.4083 117.03 45.1296 117.135C45.2653 117.144 45.3685 117.262 45.3611 117.399L45.1134 117.628Z" fill="#E2B558"/>
<path d="M38.3008 66.9176C37.0928 74.5167 31.7403 79.9816 26.345 79.1253C20.9483 78.2705 17.5515 71.4172 18.758 63.8197C19.9645 56.2207 25.317 50.7543 30.7138 51.6106C36.1105 52.4654 39.5073 59.3186 38.3008 66.9176Z" fill="#F59DB0"/>
<path d="M18.5623 69.6653C18.5623 69.6653 24.0962 63.6566 25.0815 56.7414C25.0815 56.7414 30.8794 63.6271 40.4355 62.4171C49.9901 61.2071 33.5225 43.2722 22.7364 50.3671C13.108 56.7031 17.5018 67.0655 18.5623 69.6653Z" fill="#342A59"/>
<path d="M47.681 193.856H63.6161V185.585H47.681V193.856ZM65.5925 195.831H45.7031V183.61H65.5925V195.831Z" fill="#E2B558"/>
<path d="M77.0921 191.105H34.7617C31.4845 191.105 28.8281 193.759 28.8281 197.035V231.26C28.8281 234.535 31.4845 237.19 34.7617 237.19H77.0921C80.3694 237.19 83.0273 234.535 83.0273 231.26V197.035C83.0273 193.759 80.3694 191.105 77.0921 191.105Z" fill="#FFD06F"/>
<path d="M42.1559 191.105H38.2031V237.19H42.1559V191.105Z" fill="#E2B558"/>
<path d="M73.7966 191.105H69.8438V237.19H73.7966V191.105Z" fill="#E2B558"/>
<path d="M52.9805 201.409L45.4688 202.905L50.5218 208.658L52.9805 201.409Z" fill="#E2B558"/>
<path d="M65.4901 213.382C65.4901 215.339 63.527 216.924 61.1052 216.924C58.6834 216.924 56.7188 215.339 56.7188 213.382C56.7188 211.426 58.6834 209.841 61.1052 209.841C63.527 209.841 65.4901 211.426 65.4901 213.382Z" fill="#E2B558"/>
<path d="M56.5406 229.036L51.8253 232.828L46.1719 225.813L50.8872 222.019L56.5406 229.036Z" fill="#E2B558"/>
<path d="M67.5464 181.737H43.8281V186.06H67.5464V181.737Z" fill="#E2B558"/>
</g>
<defs>
<clipPath id="clip0_0_121">
<rect width="944.994" height="243.004" fill="white"/>
</clipPath>
</defs>
</svg>
