<svg width="232" height="229" viewBox="0 0 232 229" fill="none" xmlns="http://www.w3.org/2000/svg">
<path d="M208.201 31.5857C202.183 29.8684 198.694 23.5983 200.408 17.5776C202.126 11.5584 208.396 8.06957 214.416 9.78535C220.436 11.5011 223.926 17.7727 222.209 23.7919C220.493 29.8126 214.221 33.3015 208.201 31.5857ZM216.978 0.797614C205.996 -2.33354 194.552 4.03252 191.421 15.0163C186.472 32.3801 200.799 57.5548 200.799 57.5548C200.799 57.5548 226.837 41.6528 231.196 26.3548C234.328 15.3709 227.962 3.92877 216.978 0.797614Z" fill="#CADBF1"/>
<path d="M216.78 175.375H213.826V185.553H216.78V175.375Z" fill="#FFD06F"/>
<path d="M10.2808 175.295L7.40158 174.437L4.45422 183.515L7.22046 184.614L10.2808 175.295Z" fill="#FFD06F"/>
<path d="M212.977 176.206C212.683 172.645 211.401 169.978 210.102 168.125V161.794C210.102 155.3 173.957 156.523 163.896 156.523C153.834 156.523 144.571 137.998 136.267 131.45C127.961 124.902 114.546 125.701 81.6471 125.701C48.7483 125.701 30.8626 156.363 30.8626 156.363C8.3437 163.71 6.7998 198.578 6.7998 198.578L68.7121 198.498V206.199H158.785V198.378L210.102 198.312V194.479H212.977C212.977 194.479 213.617 183.938 212.977 176.206Z" fill="#E2B558"/>
<path d="M196.589 199.229C196.589 209.813 188.009 218.392 177.424 218.392C166.84 218.392 158.26 209.813 158.26 199.229C158.26 188.645 166.84 180.064 177.424 180.064C188.009 180.064 196.589 188.645 196.589 199.229Z" fill="#1C3C43"/>
<path d="M187.942 199.125C187.942 204.991 183.186 209.745 177.322 209.745C171.456 209.745 166.701 204.991 166.701 199.125C166.701 193.259 171.456 188.505 177.322 188.505C183.186 188.505 187.942 193.259 187.942 199.125Z" fill="#085868"/>
<path d="M70.9177 199.229C70.9177 209.813 62.3387 218.392 51.7544 218.392C41.1702 218.392 32.5897 209.813 32.5897 199.229C32.5897 188.645 41.1702 180.064 51.7544 180.064C62.3387 180.064 70.9177 188.645 70.9177 199.229Z" fill="#1C3C43"/>
<path d="M62.2706 199.125C62.2706 204.991 57.5166 209.745 51.6522 209.745C45.7863 209.745 41.0308 204.991 41.0308 199.125C41.0308 193.259 45.7863 188.505 51.6522 188.505C57.5166 188.505 62.2706 193.259 62.2706 199.125Z" fill="#085868"/>
<path d="M27.1971 194.075C27.7004 190.939 28.8928 187.911 30.5746 185.18C32.2888 182.469 34.5311 180.08 37.1404 178.172C42.393 174.375 49.1803 172.812 55.6006 173.779C62.0239 174.773 68.0137 178.33 71.8758 183.524C73.8068 186.114 75.2376 189.064 76.0553 192.167C76.8342 195.278 77.0525 198.524 76.6003 201.669C76.9735 195.333 75.0116 188.968 71.0984 184.126C67.2332 179.263 61.5392 175.897 55.4085 175.039C49.298 174.025 42.8576 175.502 37.6994 178.974C32.5474 182.46 28.7302 187.915 27.1971 194.075Z" fill="#FFD06F"/>
<path d="M153.281 202.23C152.762 200.618 152.415 198.944 152.257 197.245C152.073 195.548 152.201 193.833 152.3 192.127C152.672 188.709 153.857 185.409 155.514 182.402C157.177 179.39 159.411 176.686 162.032 174.455C164.642 172.22 167.526 170.285 170.654 168.843C176.924 166.015 183.863 164.744 190.697 165.125C197.524 165.515 204.285 167.528 209.985 171.217C207.003 169.614 203.851 168.354 200.592 167.53C197.344 166.669 194.003 166.183 190.655 166.107C183.967 165.936 177.23 167.172 171.191 170.001C165.167 172.781 159.751 177.145 156.361 182.893C152.889 188.554 151.672 195.633 153.281 202.23Z" fill="#FFD06F"/>
<path d="M95.1284 158.494C95.3901 161.946 95.514 165.398 95.6162 168.849C95.7323 172.299 95.7493 175.751 95.7664 179.203C95.7509 182.654 95.7338 186.106 95.6177 189.556L95.4412 194.735C95.3328 196.46 95.2709 198.185 95.1284 199.911C94.9828 198.185 94.9209 196.46 94.8125 194.735L94.636 189.556C94.5198 186.106 94.5028 182.654 94.4873 179.203C94.5043 175.751 94.5213 172.299 94.6375 168.849C94.7412 165.398 94.8636 161.946 95.1284 158.494Z" fill="#FFD06F"/>
<path d="M20.8666 188.505H4.68428C2.09667 188.505 0 190.602 0 193.189C0 195.778 2.09667 197.875 4.68428 197.875H20.8666C23.4542 197.875 25.5525 195.778 25.5525 193.189C25.5525 190.602 23.4542 188.505 20.8666 188.505Z" fill="#085868"/>
<path d="M213.282 188.505H200.978C199.011 188.505 197.414 190.602 197.414 193.189C197.414 195.778 199.011 197.875 200.978 197.875H213.282C215.25 197.875 216.845 195.778 216.845 193.189C216.845 190.602 215.25 188.505 213.282 188.505Z" fill="#085868"/>
<path d="M50.635 151.559H87.1482C89.0312 151.559 90.5565 150.034 90.5565 148.152V135.643C90.5565 133.76 89.0312 132.235 87.1482 132.235H77.1353C69.0859 132.235 61.3974 135.555 55.8768 141.413L49.2785 148.419C48.1589 149.606 49.0013 151.559 50.635 151.559Z" fill="#085868"/>
<path d="M119.585 152.358H103.062C100.657 152.358 98.7072 150.408 98.7072 148.004V136.591C98.7072 134.186 100.657 132.235 103.062 132.235H119.585C121.989 132.235 123.941 134.186 123.941 136.591V148.004C123.941 150.408 121.989 152.358 119.585 152.358Z" fill="#085868"/>
<path d="M114.747 125.687H80.0483C77.727 125.687 76.098 123.398 76.8568 121.205L80.3735 111.059C80.8458 109.699 82.1249 108.789 83.5635 108.789H111.231C112.668 108.789 113.949 109.699 114.42 111.059L117.937 121.205C118.697 123.398 117.068 125.687 114.747 125.687Z" fill="#FFD06F"/>
<path d="M12.5772 174.591L8.91016 173.5L5.15808 185.061L8.67945 186.462L12.5772 174.591Z" fill="#085868"/>
<path d="M215.141 173.5H212.185V186.874H215.141V173.5Z" fill="#085868"/>
<path d="M144.299 124.182C144.299 124.182 138.556 155.949 146.196 169.856C146.196 169.856 131.942 181.027 126.373 215.742L129.199 216.096C129.199 216.096 167.825 177.462 173.337 127.81L163.942 118.167L144.299 124.182Z" fill="#1C3C43"/>
<path d="M156.798 129.265C156.798 129.265 166.003 137.423 160.691 222.099L157.215 222.294C157.215 222.294 141.206 199.826 143.352 179.57C143.352 179.57 134.852 172.611 128.906 156.524C124.178 143.733 126.025 129.385 126.025 129.385L135.77 120.981L156.798 129.265Z" fill="#085868"/>
<path d="M126.539 213.826L123.326 219.277L135.85 225.344L129.698 215.246L126.539 213.826Z" fill="#1C3C43"/>
<path d="M157.254 222.43L156.852 228.746L170.765 228.494L160.713 222.267L157.254 222.43Z" fill="#1C3C43"/>
<path d="M128.919 151.441H145.65V142.75H128.919V151.441ZM147.725 153.516H126.843V140.675H147.725V153.516Z" fill="#E2B558"/>
<path d="M159.932 148.178H115.489C112.048 148.178 109.257 150.968 109.257 154.408V190.37C109.257 193.81 112.048 196.599 115.489 196.599H159.932C163.373 196.599 166.162 193.81 166.162 190.37V154.408C166.162 150.968 163.373 148.178 159.932 148.178Z" fill="#FFD06F"/>
<path d="M123.255 148.178H119.105V196.599H123.255V148.178Z" fill="#E2B558"/>
<path d="M156.314 148.178H152.164V196.599H156.314V148.178Z" fill="#E2B558"/>
<path d="M134.492 159.432L126.608 161.003L131.911 167.045L134.492 159.432Z" fill="#E2B558"/>
<path d="M147.77 172.53C147.77 174.584 145.709 176.25 143.167 176.25C140.626 176.25 138.565 174.584 138.565 172.53C138.565 170.476 140.626 168.81 143.167 168.81C145.709 168.81 147.77 170.476 147.77 172.53Z" fill="#E2B558"/>
<path d="M149.868 138.8H124.966V143.34H149.868V138.8Z" fill="#E2B558"/>
<path d="M183.347 127.618C183.819 129.065 185.381 134.568 187.96 133.389C190.537 132.208 193.273 130.119 192.974 128.401C192.677 126.683 187.757 124.078 187.757 124.078L184.05 123.794L183.347 127.618Z" fill="#F59DB0"/>
<path d="M152.298 65.9813C137.397 93.0343 172.194 121.617 183.379 127.534L187.878 124.005C187.878 124.005 171.976 110.33 165.608 67.4153C165.164 64.4111 154.643 61.7259 152.298 65.9813Z" fill="#E2B558"/>
<path d="M125.845 131.079C125.845 131.079 137.106 135.037 154.491 135.037C171.878 135.037 173.15 130.837 173.15 130.837C173.15 130.837 179.615 62.6536 153.643 60.1078C130.958 57.8841 123.511 99.0629 125.845 131.079Z" fill="#FFD06F"/>
<path d="M164.028 49.7316C164.444 57.8042 160.136 64.5868 154.408 64.8825C148.679 65.1783 143.697 58.8726 143.282 50.8001C142.866 42.7275 147.172 35.9434 152.903 35.6476C158.631 35.3534 163.613 41.6591 164.028 49.7316Z" fill="#F59DB0"/>
<path d="M144.561 56.7753C144.561 56.7753 148.934 49.395 148.442 42.0719C148.442 42.0719 155.895 47.8883 165.445 44.5651C174.996 41.2404 154.176 26.3914 144.644 36.0311C136.134 44.6394 142.906 54.3333 144.561 56.7753Z" fill="#342A59"/>
<path d="M133.82 137.596C133.285 139.022 131.069 144.296 133.82 144.983C136.573 145.671 140.011 145.748 140.851 144.219C141.692 142.691 139.475 137.584 139.475 137.584L136.757 135.048L133.82 137.596Z" fill="#F59DB0"/>
<path d="M156.362 73.1157C156.362 73.1157 140.375 88.1443 139.197 109.096C137.974 130.813 139.654 137.547 139.654 137.547L133.997 137.56C127.27 120.41 121.766 95.7941 139.256 70.3376" fill="#FFD06F"/>
<path d="M131.369 130.434L131.12 130.252C125.218 111.378 126.166 94.581 134.02 78.8943L134.367 78.7782L134.483 79.1266C126.693 94.6848 125.756 111.36 131.615 130.098L131.445 130.422L131.369 130.434Z" fill="#E2B558"/>
<path d="M138.765 131.41L138.507 131.164C138.203 125.406 138.293 118.125 138.781 109.52C139.442 97.7662 144.769 87.8788 149.12 81.6567L149.483 81.5917L149.548 81.9525C145.233 88.1219 139.953 97.9164 139.299 109.548C138.812 118.136 138.722 125.398 139.025 131.136C139.033 131.28 138.92 131.401 138.781 131.41H138.765Z" fill="#E2B558"/>
</svg>
