<svg width="107" height="240" viewBox="0 0 107 240" fill="none" xmlns="http://www.w3.org/2000/svg">
<path d="M46.659 27.4269C45.9037 33.7055 42.576 39.0352 37.8545 42.5077C36.351 43.6043 34.6984 44.5336 32.9431 45.2239C29.628 46.5356 25.974 47.074 22.1948 46.6199C16.8953 45.9845 12.2497 43.5101 8.83053 39.9069C7.54783 38.5319 6.43393 37.0079 5.52395 35.3574C3.37767 31.4744 2.40439 26.9053 2.9712 22.183C3.77711 15.4798 7.51691 9.8408 12.7616 6.39499C14.3313 5.37995 16.0274 4.55048 17.8094 3.9572C20.8249 2.94778 24.0837 2.56819 27.4382 2.97027C39.4986 4.41833 48.1063 15.3701 46.659 27.4269Z" fill="#DFEDF9"/>
<path d="M37.7217 42.3013C36.2181 43.3979 34.5655 44.3272 32.8103 45.0175L23.0718 26.2645L8.6977 39.7005C7.415 38.3255 6.3011 36.8016 5.39111 35.1511L20.3841 21.1148L12.6288 6.18861C14.1984 5.17357 15.8946 4.3441 17.6766 3.75082L37.7217 42.3013Z" fill="white"/>
<path d="M27.0843 5.73444C16.5766 4.47337 6.99848 11.9934 5.73687 22.4981C4.47527 33.0028 11.9985 42.5768 22.5076 43.8379C33.0154 45.099 42.5934 37.5789 43.855 27.0742C45.118 16.5695 37.5934 6.99551 27.0843 5.73444ZM21.8396 49.3939C8.26571 47.7645 -1.45159 35.3998 0.178507 21.8317C1.80861 8.2636 14.1785 -1.451 27.7524 0.17841C41.3262 1.80782 51.0435 14.1725 49.4134 27.7406C47.7833 41.3087 35.4134 51.0233 21.8396 49.3939Z" fill="#CADBF1"/>
<path d="M12.9521 43.1068L3.99145 63.2839C3.36557 64.6968 4.00129 66.3487 5.41479 66.9757C5.6764 67.0924 5.94642 67.1655 6.21787 67.1978C7.40493 67.3398 8.59624 66.7044 9.1082 65.5544L17.9043 45.7456C15.8902 45.2282 14.2432 44.3074 12.9521 43.1068Z" fill="#CADBF1"/>
<path d="M22.8682 21.4056L22.0314 19.9055L22.4407 19.6792L23.2775 21.1792L22.8682 21.4056ZM24.5433 24.4099L23.7037 22.9085L24.113 22.6807L24.9526 24.1822L24.5433 24.4099ZM26.2156 27.4115L25.3788 25.91L25.7881 25.6837L26.6235 27.1851L26.2156 27.4115ZM27.8879 30.4144L27.0525 28.913L27.4604 28.6866L28.2972 30.1881L27.8879 30.4144Z" fill="#DFEDF9"/>
<path d="M32.0131 36.2773L30.3198 37.162C29.9738 37.3434 29.5476 37.2084 29.3662 36.8624L27.2677 32.8427C27.0877 32.4967 27.2213 32.0692 27.5673 31.8892L29.2607 31.0045C29.6066 30.8245 30.0342 30.9581 30.2143 31.3041L32.3127 35.3252C32.4941 35.6712 32.3591 36.0973 32.0131 36.2773Z" fill="#FFD06F"/>
<path d="M21.1245 19.1074C20.9375 20.6644 19.5254 21.7727 17.9684 21.5856C16.4128 21.4 15.3017 19.9865 15.4902 18.4309C15.6759 16.8754 17.0894 15.7642 18.6449 15.9513C20.2019 16.1384 21.3116 17.5519 21.1245 19.1074Z" fill="#E2B558"/>
<path d="M20.2821 18.9136C20.1611 19.915 19.2511 20.6295 18.2497 20.5085C17.2469 20.389 16.5338 19.479 16.6533 18.4776C16.7729 17.4747 17.6829 16.7603 18.6857 16.8812C19.6871 17.0008 20.4016 17.9107 20.2821 18.9136Z" fill="#FFD06F"/>
<path d="M29.0626 235.391V240.004H42.8067L32.9487 235.391L30.6801 233.339L29.0626 235.391Z" fill="#1C3C43"/>
<path d="M66.5626 232.581V237.194H80.3053L70.4473 232.581L68.1786 230.527L66.5626 232.581Z" fill="#1C3C43"/>
<path d="M67.8 148.062C67.8 148.062 76.9773 203.722 70.4203 232.595H66.5357C66.5357 232.595 45.0785 168.758 35.3907 156.049L67.8 148.062Z" fill="#1C3C43"/>
<path d="M59.0008 156.012C59.0008 156.012 48.9389 210.403 33.1344 235.441H29.2483C29.2483 235.441 30.6787 167.959 25.7814 152.748L59.0008 156.012Z" fill="#085868"/>
<path d="M24.8535 171.891H40.0491V164.003H24.8535V171.891ZM41.9352 173.776H22.9689V162.119H41.9352V173.776Z" fill="#E2B558"/>
<path d="M52.8219 168.679H12.4548C9.33098 168.679 6.79651 171.212 6.79651 174.334V206.983C6.79651 210.107 9.33098 212.639 12.4548 212.639H52.8219C55.947 212.639 58.4801 210.107 58.4801 206.983V174.334C58.4801 171.212 55.947 168.679 52.8219 168.679Z" fill="#FFD06F"/>
<path d="M19.4726 168.679H15.7032V212.639H19.4726V168.679Z" fill="#E2B558"/>
<path d="M49.7084 168.679H45.9376V212.639H49.7084V168.679Z" fill="#E2B558"/>
<path d="M29.6619 178.05L22.5001 179.477L27.3173 184.967L29.6619 178.05Z" fill="#E2B558"/>
<path d="M41.88 190.802C41.88 192.668 40.008 194.182 37.6986 194.182C35.3892 194.182 33.5157 192.668 33.5157 190.802C33.5157 188.934 35.3892 187.421 37.6986 187.421C40.008 187.421 41.88 188.934 41.88 190.802Z" fill="#E2B558"/>
<path d="M33.3237 205.359L28.8272 208.977L23.4376 202.283L27.9341 198.666L33.3237 205.359Z" fill="#E2B558"/>
<path d="M43.7114 160.245H21.0939V164.368H43.7114V160.245Z" fill="#E2B558"/>
<path d="M100.71 79.8196C100.71 79.8196 99.2883 75.5655 100.71 74.9412C102.134 74.3156 102.416 68.6949 104.705 68.4166C106.994 68.1396 108.11 75.0903 104.705 80.9851L102.481 82.2279L100.71 79.8196Z" fill="#F59DB0"/>
<path d="M49.007 82.9407C49.007 82.9407 62.301 102.035 81.1449 99.1701C97.3193 96.7098 100.731 79.6538 100.731 79.6538L104.726 80.8192C104.279 103.462 79.9944 127.768 45.7032 101.084" fill="#E2B558"/>
<path d="M25.6835 152.599C25.6835 152.599 35.9114 156.192 51.7018 156.192C67.4923 156.192 68.6498 152.381 68.6498 152.381C68.6498 152.381 74.519 90.4788 50.9325 88.1661C30.3277 86.1473 23.5654 123.534 25.6835 152.599Z" fill="#FFD06F"/>
<path d="M58.4787 78.3912C58.857 85.7215 54.9429 91.8792 49.7403 92.1463C44.5364 92.4149 40.0131 86.6915 39.6348 79.3627C39.2564 72.0325 43.1693 65.8747 48.3718 65.6062C53.5757 65.3391 58.1004 71.0624 58.4787 78.3912Z" fill="#F59DB0"/>
<path d="M40.7738 85.4663C40.7738 85.4663 44.7471 78.7673 44.2984 72.1189C44.2984 72.1189 51.0692 77.3994 59.7429 74.381C68.4166 71.3626 49.5066 57.883 40.8498 66.6346C33.1198 74.4485 39.2689 83.2507 40.7738 85.4663Z" fill="#342A59"/>
<path d="M29.8199 158.811C29.3347 160.107 27.3221 164.897 29.8199 165.523C32.3207 166.147 35.4444 166.216 36.2081 164.828C36.9718 163.44 34.9592 158.8 34.9592 158.8L32.488 156.496L29.8199 158.811Z" fill="#F59DB0"/>
<path d="M50.3143 99.9809C50.3143 99.9809 35.7953 113.624 34.7222 132.646C33.6125 152.362 35.1399 158.477 35.1399 158.477L30.0007 158.488C23.891 142.918 18.8924 120.57 34.777 97.4587" fill="#FFD06F"/>
<path d="M34.3795 152.057L34.1446 151.835C33.8675 146.613 33.9505 140 34.3907 132.185C34.9927 121.518 39.8309 112.54 43.7845 106.889L44.1108 106.83L44.1699 107.159C40.2515 112.761 35.4568 121.656 34.8619 132.211C34.4217 140.011 34.3387 146.603 34.6143 151.808C34.6228 151.939 34.5215 152.05 34.3921 152.057H34.3795Z" fill="#E2B558"/>
</svg>
