<svg width="257" height="249" viewBox="0 0 257 249" fill="none" xmlns="http://www.w3.org/2000/svg">
<path d="M57.5291 156.936C64.6161 190.633 89.1264 219.343 119.548 236.145C135.051 244.708 152.862 250.563 170.467 248.211C186.919 246.013 201.806 236.742 213.112 224.74C224.417 212.738 232.464 198.111 239.299 183.176C245.948 168.645 251.669 152.933 249.796 137.097C248.132 123.029 240.528 110.169 230.818 99.7444C221.109 89.3201 209.324 81.0313 197.635 72.8251C181.091 61.21 163.861 49.2986 143.917 45.5639C115.889 40.3156 95.799 57.2867 78.3654 76.5981C59.0246 98.023 51.6589 129.022 57.5291 156.936Z" fill="#DFEDF9"/>
<path d="M211.449 149.535C212.697 144.035 215.436 138.636 214.584 133.031C214.081 129.724 212.343 126.579 211.967 123.263C211.409 118.345 213.877 113.66 216.29 109.237C218.674 104.867 221.057 100.497 223.441 96.1267C224.571 94.0562 225.734 91.9449 227.611 90.3214C229.488 88.698 232.244 87.6244 234.918 88.1237C238.912 88.8701 241.044 92.5461 242.581 95.7734C245.289 101.463 248.041 107.336 248 113.405C247.957 119.581 245.007 125.525 245.444 131.701C245.662 134.782 246.719 137.8 247.087 140.874C248.111 149.436 243.296 158.178 234.981 162.867C230.748 165.253 220.227 169.163 215.51 165.506C210.938 161.962 210.413 154.101 211.449 149.535Z" fill="#CADBF1"/>
<path d="M241.949 135.052C238.495 139.078 233.817 142.072 228.733 143.553C229.072 139.033 229.439 134.519 229.88 130.025C230.275 125.986 230.734 121.936 231.222 117.884C235.709 116.569 239.748 114.054 242.906 110.59C243.04 110.443 243.029 110.215 242.884 110.081C242.737 109.947 242.512 109.956 242.379 110.103C239.422 113.346 235.509 115.808 231.319 117.098C232.279 109.217 233.39 101.339 234.68 93.5573C234.723 93.2967 234.547 93.0492 234.287 93.0067C234.031 92.9643 233.781 93.1391 233.738 93.4005C233.014 97.7694 232.358 102.173 231.737 106.586C228.782 103.893 226.647 100.298 225.719 96.401C225.674 96.2074 225.477 96.0898 225.288 96.1347C225.096 96.1813 224.977 96.3749 225.023 96.5677C226.018 100.751 228.346 104.606 231.581 107.425L231.617 107.442C230.574 114.929 229.662 122.449 228.93 129.932C228.794 131.324 228.684 132.722 228.558 134.117C224.705 132.034 221.416 128.811 219.273 124.981C219.177 124.807 218.958 124.747 218.786 124.844C218.614 124.94 218.552 125.16 218.65 125.333C220.907 129.37 224.399 132.762 228.489 134.903C227.797 142.671 227.248 150.475 226.818 158.288C222.868 156.227 219.357 153.295 216.642 149.755C216.52 149.599 216.296 149.569 216.139 149.69C215.984 149.811 215.954 150.037 216.074 150.194C218.918 153.902 222.613 156.96 226.772 159.075C225.815 176.752 226.347 184.195 225.941 201.509C225.935 201.763 226.126 201.976 226.375 201.998L226.407 202C226.67 202.006 226.89 201.796 226.895 201.532C227.415 179.386 227.012 166.872 228.677 144.322C233.993 142.83 238.89 139.72 242.491 135.522C242.621 135.371 242.604 135.143 242.453 135.014C242.306 134.888 242.079 134.902 241.949 135.052Z" fill="#DFEDF9"/>
<path d="M26.8113 44.9702C28.3993 50.7258 30.419 56.4511 30.6635 62.4186C31.1245 73.6044 25.3536 84.0538 23.514 95.0992C20.1948 115.029 31.5028 136.63 49.9947 144.793C68.4849 152.954 92.4258 146.497 103.886 129.848C115.347 113.199 112.591 88.1614 97.4499 74.7801C91.1076 69.1754 82.9998 65.501 77.8201 58.8097C73.4795 53.2043 71.6845 46.1005 69.881 39.2446C66.3302 25.742 57.8344 9.69506 40.9788 11.7427C25.1615 13.6648 23.5142 33.0186 26.8113 44.9702Z" fill="#CADBF1"/>
<path d="M85.9215 81.5447C85.5976 81.4301 85.2399 81.6053 85.1248 81.9337C81.8356 91.5014 75.6994 100.183 67.8134 106.545L56.1405 62.9815C61.7461 58.8277 65.674 52.3388 66.676 45.4391C66.7261 45.0961 66.4869 44.7787 66.1437 44.7288C65.8051 44.6791 65.4839 44.9163 65.4338 45.2593C64.5051 51.6693 60.9174 57.7009 55.7888 61.669L46.119 25.5807C45.9996 25.1352 45.5409 24.8705 45.095 24.99C44.649 25.1095 44.3841 25.5681 44.5035 26.0136L49.074 43.0712C42.4154 41.9502 36.1301 38.1765 32.1013 32.7714C31.8956 32.4939 31.5075 32.4361 31.2237 32.6419C30.9463 32.8489 30.8881 33.2414 31.0956 33.52C35.4274 39.3322 42.2485 43.356 49.4314 44.4051L61.1737 88.2278C52.4667 88.8763 43.5639 85.8253 37.1607 79.8846C36.9063 79.6476 36.5077 79.6644 36.2761 79.9171C36.0389 80.1714 36.0551 80.5684 36.3087 80.8025C43.022 87.034 52.3823 90.237 61.5109 89.4862L71.5808 127.068C59.8271 128.011 47.78 124.463 38.4405 117.269C38.1665 117.055 37.7717 117.109 37.5609 117.382C37.3486 117.656 37.4006 118.049 37.6753 118.26C47.3192 125.689 59.7754 129.334 71.9112 128.301L90.1339 196.309C90.2533 196.754 90.7121 197.019 91.158 196.9C91.6039 196.78 91.8689 196.322 91.7495 195.876L68.1704 107.878C76.4492 101.34 82.8861 92.3048 86.3118 82.3404C86.424 82.0128 86.2493 81.6568 85.9215 81.5447Z" fill="#DFEDF9"/>
<path d="M221.708 201.846C221.624 206.591 217.439 210.162 215.668 214.563C214.019 218.705 214.609 223.341 214.832 227.792C215.069 232.244 214.779 237.115 211.835 240.475C210.439 242.071 208.894 242.932 207.298 243.211C206.836 243.296 206.385 243.329 205.92 243.306C198.183 243.2 189.636 231.167 189.037 225.005C188.417 218.698 190.404 212.443 192.55 206.473C194.696 200.504 197.05 194.46 197.267 188.118C197.448 182.534 195.954 176.901 196.963 171.403C197.985 165.918 203.087 160.437 208.465 161.955C213.181 163.287 215.091 168.997 215.093 173.882C215.096 178.781 213.963 183.847 215.627 188.436C217.321 193.107 221.782 196.88 221.708 201.846Z" fill="#CADBF1"/>
<path d="M217.092 204.913C214.708 207.999 211.18 210.095 207.341 210.758C207.213 211.201 207.099 211.657 206.972 212.1C206.648 213.256 206.31 214.425 206.027 215.605C204.652 221.25 204.298 227.185 204.95 233.001C208.245 231.365 210.826 228.245 211.783 224.7C211.851 224.445 212.124 224.287 212.392 224.357C212.661 224.424 212.819 224.697 212.738 224.967C211.69 228.886 208.776 232.324 205.087 234.043C205.512 237.264 206.241 240.448 207.272 243.525C206.81 243.611 206.359 243.643 205.894 243.621C203.537 236.404 202.777 228.616 203.702 221.076C199.326 220.009 195.344 217.173 192.981 213.368C192.838 213.134 192.906 212.826 193.139 212.684C193.372 212.528 193.68 212.607 193.823 212.842C196.043 216.401 199.752 219.063 203.82 220.077C204.046 218.461 204.353 216.868 204.738 215.285C205.022 214.105 205.359 212.924 205.695 211.741C206.494 208.908 207.317 205.98 207.475 203.039C207.531 202.148 207.507 201.246 207.457 200.345C203.83 199.698 200.516 197.63 198.36 194.639C198.19 194.42 198.245 194.112 198.463 193.944C198.683 193.79 199.005 193.843 199.159 194.062C201.118 196.77 204.093 198.665 207.375 199.312C207.154 197.197 206.735 195.091 206.331 193.023C206.081 191.799 205.845 190.574 205.634 189.348C204.963 185.287 204.985 181.967 205.693 179.164C202.612 177.259 200.202 174.225 199.09 170.779C198.999 170.517 199.146 170.232 199.409 170.156C199.658 170.066 199.943 170.213 200.034 170.474C201.053 173.606 203.199 176.359 205.971 178.155C206.3 177.134 206.739 176.173 207.286 175.287C207.474 174.975 207.881 174.878 208.195 175.063C208.507 175.251 208.603 175.657 208.418 175.97C206.788 178.64 206.208 181.996 206.6 186.348C208.857 185.326 210.707 183.483 211.743 181.237C211.853 180.981 212.154 180.875 212.398 180.984C212.655 181.106 212.76 181.395 212.651 181.651C211.468 184.222 209.308 186.303 206.71 187.392C206.773 187.961 206.85 188.528 206.941 189.135C207.151 190.347 207.387 191.56 207.636 192.757C208.305 196.129 208.994 199.605 208.807 203.116C208.673 205.353 208.193 207.549 207.63 209.683C211.041 208.986 214.164 207.066 216.308 204.308C216.472 204.089 216.791 204.049 217.01 204.226C217.229 204.389 217.255 204.708 217.092 204.913Z" fill="#DFEDF9"/>
<path d="M207.078 243.578C202.094 243.613 196.256 240.885 193.116 236.633C192.902 236.367 192.714 236.09 192.534 235.801C191.556 234.263 190.935 232.548 190.818 230.717C190.402 224.359 196.091 220.362 201.768 218.968C207.456 217.583 213.824 217.64 218.602 214.5C223.386 211.349 225.765 205.514 227.581 199.782C229.386 194.04 230.941 187.972 234.683 183.586C238.72 178.841 248.947 175.538 254.361 182.777C260.904 191.532 251.905 198.373 247.106 202.718C239.824 209.287 235.804 218.931 230.467 227.347C225.122 235.773 217.413 243.485 207.078 243.578Z" fill="#CADBF1"/>
<path d="M224.918 230.69C221.771 232.17 218.061 232.4 214.759 231.318C213.868 231.017 213.16 230.675 212.603 230.247C212.381 230.077 212.203 229.874 212.024 229.67C208.867 231.141 205.566 232.319 202.35 233.43C199.715 234.351 196.99 235.303 194.399 236.407C194.004 236.572 193.628 236.734 193.254 236.917C193.041 236.65 192.852 236.373 192.672 236.084C193.11 235.885 193.548 235.686 193.996 235.495C196.032 234.634 198.128 233.868 200.2 233.134L200.182 233.07C199.917 229.518 200.393 225.853 201.554 222.494C201.653 222.236 201.927 222.096 202.195 222.185C202.454 222.283 202.594 222.558 202.495 222.817C201.405 225.995 200.948 229.442 201.16 232.801C201.451 232.706 201.738 232.591 202.029 232.497C205.766 231.187 209.644 229.849 213.207 228.002C216.312 226.404 219.203 224.409 221.819 222.118C220.693 219.947 220.362 217.352 220.923 214.97C220.982 214.699 221.244 214.533 221.517 214.592C221.788 214.651 221.948 214.922 221.889 215.194C221.402 217.264 221.668 219.508 222.589 221.423C225.113 219.078 227.373 216.446 229.284 213.548C231.548 210.083 233.378 206.203 235.141 202.453C235.465 201.749 235.791 201.063 236.128 200.366C235.47 199.677 234.921 198.888 234.524 198.032C233.454 195.703 233.458 193.064 233.457 190.736C233.468 190.461 233.687 190.243 233.96 190.235C234.235 190.247 234.454 190.464 234.461 190.738C234.458 192.96 234.446 195.478 235.436 197.61C235.728 198.253 236.126 198.844 236.595 199.388C239.297 193.767 242.344 188.26 247.203 184.296C247.426 184.116 247.732 184.151 247.914 184.374C248.091 184.577 248.048 184.896 247.833 185.065C245.799 186.731 244.109 188.645 242.622 190.75C246.188 191.23 249.912 190.394 252.906 188.395C253.142 188.241 253.445 188.306 253.598 188.54C253.76 188.766 253.688 189.078 253.46 189.221C250.125 191.445 245.943 192.331 241.995 191.674C239.724 195.083 237.905 198.906 236.047 202.866C234.579 205.97 233.064 209.158 231.305 212.139C233.498 211.815 235.631 211.196 237.634 210.225C237.883 210.098 238.181 210.21 238.299 210.45C238.426 210.698 238.312 210.997 238.073 211.113C235.722 212.253 233.221 212.959 230.626 213.24C230.455 213.528 230.294 213.822 230.111 214.083C226.01 220.351 220.316 225.465 213.665 228.888C213.434 229.013 213.193 229.11 212.952 229.227C213.448 229.691 214.12 230.058 215.07 230.369C218.135 231.368 221.573 231.165 224.496 229.781C224.749 229.672 225.036 229.776 225.163 230.025C225.272 230.276 225.168 230.563 224.918 230.69Z" fill="#DFEDF9"/>
<path d="M105.587 191.705C106.187 202.774 95.4041 212.107 96.41 223.192C96.8717 228.28 101.099 237.501 109.093 238.2C109.493 238.241 109.909 238.26 110.329 238.254C111.04 238.226 111.783 238.142 112.562 237.992C122.54 235.96 124.313 224.579 123.665 218.038C122.86 209.808 119.403 201.379 121.14 193.416C122.414 187.579 126.434 182.326 126.832 176.36C127.24 170.395 121.795 162.951 113.558 162.645C105.692 162.35 101.204 168.734 101.547 174.485C101.901 180.238 105.28 185.949 105.587 191.705Z" fill="#CADBF1"/>
<path d="M111.202 215.779C111.224 216.681 111.242 217.605 111.264 218.517C109.895 217.938 108.545 217.027 107.24 215.765C105.851 214.429 104.631 212.857 103.463 211.341C103.314 211.149 103.034 211.105 102.842 211.252C102.649 211.413 102.616 211.684 102.765 211.876C103.954 213.418 105.183 215.015 106.622 216.406C108.126 217.845 109.697 218.877 111.286 219.49C111.337 222.514 111.323 225.585 111.031 228.589C110.702 232.114 110.023 235.295 108.983 238.107C109.383 238.148 109.799 238.167 110.219 238.161C110.774 236.577 111.227 234.878 111.576 233.081C115.41 231.435 118.91 228.959 121.702 225.89C121.862 225.714 121.861 225.425 121.671 225.263C121.494 225.103 121.218 225.106 121.044 225.294C118.467 228.134 115.271 230.431 111.771 232.023C111.944 230.95 112.107 229.852 112.209 228.707C112.618 224.381 112.498 219.995 112.38 215.742C112.348 214.384 112.303 213.025 112.281 211.67C112.255 210.122 112.267 208.569 112.289 207.017C115.177 206.476 117.874 204.9 119.727 202.613C119.877 202.421 119.851 202.143 119.659 201.991C119.47 201.83 119.19 201.857 119.039 202.048C117.351 204.134 114.914 205.584 112.303 206.109C112.436 198.666 113.082 191.232 114.206 183.875C117.603 182.338 120.64 179.835 122.77 176.792C122.923 176.59 122.87 176.319 122.666 176.177C122.473 176.039 122.19 176.077 122.05 176.282C120.109 179.045 117.407 181.325 114.365 182.811C114.91 179.428 115.548 176.062 116.301 172.725C116.365 172.401 116.165 172.081 115.851 172.019C115.516 171.941 115.221 172.145 115.146 172.456C113.762 178.599 112.75 184.814 112.069 191.057C109.461 189.549 107.346 187.139 106.243 184.329C106.16 184.1 105.901 183.999 105.672 184.083C105.441 184.177 105.329 184.433 105.424 184.652C106.647 187.769 109.022 190.423 111.961 192.021C111.293 198.553 111.001 205.123 111.106 211.684C111.125 213.051 111.159 214.408 111.202 215.779Z" fill="#DFEDF9"/>
<path d="M102.431 240.067C107.275 240.594 113.225 238.516 116.7 234.688C116.934 234.451 117.144 234.199 117.347 233.936C118.451 232.536 119.225 230.93 119.518 229.161C120.549 223.015 115.412 218.567 110.027 216.651C104.632 214.743 98.43 214.171 94.0937 210.646C89.75 207.108 88.0111 201.198 86.812 195.442C85.6232 189.681 84.7102 183.625 81.5022 178.988C78.045 173.974 68.4226 169.753 62.4403 176.26C55.2132 184.133 63.2898 191.675 67.5288 196.373C73.9624 203.481 76.9226 213.26 81.2825 221.972C85.6483 230.695 92.3872 238.959 102.431 240.067Z" fill="#CADBF1"/>
<path d="M86.6771 226.032C89.593 227.783 93.1786 228.371 96.4986 227.644C97.3954 227.441 98.1181 227.177 98.7037 226.815C98.9352 226.672 99.1284 226.49 99.3217 226.311C102.249 228.054 105.344 229.525 108.361 230.922C110.833 232.078 113.391 233.273 115.801 234.602C116.17 234.801 116.519 234.997 116.866 235.211C117.1 234.974 117.31 234.722 117.513 234.459C117.108 234.222 116.701 233.985 116.283 233.756C114.388 232.716 112.425 231.765 110.482 230.846L110.506 230.787C111.115 227.359 111.013 223.746 110.215 220.364C110.145 220.103 109.892 219.939 109.623 220C109.361 220.069 109.198 220.323 109.269 220.585C110.015 223.783 110.12 227.182 109.581 230.427C109.308 230.306 109.038 230.168 108.766 230.047C105.258 228.404 101.621 226.719 98.3364 224.572C95.4736 222.712 92.8585 220.486 90.5385 218C91.8497 216 92.4264 213.508 92.1181 211.135C92.0871 210.865 91.8482 210.676 91.5783 210.707C91.3054 210.737 91.124 210.987 91.155 211.257C91.4249 213.319 90.9441 215.477 89.8585 217.247C87.6358 214.718 85.6978 211.935 84.124 208.927C82.2641 205.334 80.8659 201.378 79.5222 197.556C79.2759 196.84 79.0267 196.14 78.7685 195.43C79.478 194.824 80.0886 194.111 80.5591 193.316C81.8305 191.157 82.0857 188.588 82.3172 186.325C82.3334 186.056 82.1447 185.823 81.8777 185.788C81.6093 185.772 81.3762 185.962 81.3408 186.227C81.124 188.391 80.8865 190.84 79.7154 192.817C79.3674 193.412 78.9205 193.949 78.4101 194.432C76.3379 188.697 73.9175 183.041 69.5827 178.705C69.3851 178.509 69.0812 178.513 68.8836 178.711C68.6904 178.892 68.7022 179.205 68.8939 179.392C70.7081 181.213 72.1638 183.241 73.4013 185.434C69.8851 185.551 66.3452 184.37 63.6284 182.13C63.4146 181.958 63.1151 181.99 62.9426 182.204C62.7626 182.407 62.8024 182.718 63.0089 182.879C66.034 185.371 70.0134 186.646 73.919 186.395C75.7921 189.935 77.1845 193.834 78.6004 197.867C79.7214 201.033 80.8806 204.283 82.2966 207.357C80.1978 206.827 78.183 206.013 76.3305 204.871C76.1004 204.724 75.7995 204.803 75.6623 205.024C75.5134 205.254 75.593 205.555 75.8157 205.693C77.9898 207.033 80.3526 207.965 82.8497 208.495C82.9868 208.791 83.1137 209.095 83.2671 209.366C86.6388 215.867 91.6712 221.403 97.804 225.388C98.0149 225.533 98.242 225.65 98.4647 225.789C97.9367 226.191 97.245 226.482 96.2907 226.691C93.2096 227.362 89.8851 226.824 87.1786 225.189C86.9441 225.059 86.6535 225.132 86.506 225.362C86.3762 225.594 86.4485 225.885 86.6771 226.032Z" fill="#DFEDF9"/>
</svg>
